<svg width="216" height="216" viewBox="0 0 216 216" fill="none" xmlns="http://www.w3.org/2000/svg">
<path d="M0 25H33.5172V58.5172V58.5172C15.0062 58.5172 0 43.5111 0 25V25Z" fill="#5AC8D8"/>
<path d="M33.5195 25V25C51.6878 25 66.4161 39.7283 66.4161 57.8966V58.5172H33.5195V25Z" fill="#91FBFF"/>
<path d="M83.1719 25H99.3098V58.5172V58.5172C90.3971 58.5172 83.1719 51.292 83.1719 42.3793V25Z" fill="#5AC8D8"/>
<path d="M99.3125 25V25C117.824 25 132.83 40.0062 132.83 58.5172V58.5172H99.3125V25Z" fill="#5AC8D8"/>
<path d="M149.586 25H166.345V58.5172V58.5172C157.089 58.5172 149.586 51.0142 149.586 41.7586V25Z" fill="#91FBFF"/>
<path d="M166.344 25V25C184.512 25 199.24 39.7283 199.24 57.8966V58.5172H166.344V25Z" fill="#91FBFF"/>
<path d="M199.238 157.828V157.828C208.494 157.828 215.997 165.331 215.997 174.587V191.345H199.238V157.828Z" fill="#91FBFF"/>
<path d="M132.828 157.828V157.828C142.084 157.828 149.587 165.331 149.587 174.587V191.345H132.828V157.828Z" fill="#5AC8D8"/>
<path d="M66.4141 157.828V157.828C75.6696 157.828 83.1727 165.331 83.1727 174.587V191.345H66.4141V157.828Z" fill="#91FBFF"/>
<rect x="33.5195" y="58.5156" width="32.8966" height="32.8966" fill="#5AC8D8"/>
<rect x="33.5195" y="91.4141" width="32.8966" height="32.8966" fill="#1197A7"/>
<rect x="33.5195" y="124.311" width="32.8966" height="33.5172" fill="#5AC8D8"/>
<rect x="99.3125" y="58.5156" width="33.5172" height="32.8966" fill="#1197A7"/>
<rect x="99.3125" y="91.4141" width="33.5172" height="32.8966" fill="#5AC8D8"/>
<rect x="99.3125" y="124.311" width="33.5172" height="33.5172" fill="#91FBFF"/>
<rect x="166.344" y="58.5156" width="32.8966" height="32.8966" fill="#5AC8D8"/>
<rect x="166.344" y="91.4141" width="32.8966" height="32.8966" fill="#1197A7"/>
<rect x="166.344" y="124.311" width="32.8966" height="33.5172" fill="#5AC8D8"/>
<path d="M33.5195 157.828H66.4161V191.345V191.345C48.2478 191.345 33.5195 176.617 33.5195 158.449V157.828Z" fill="#91FBFF"/>
<path d="M99.3125 157.828H132.83V191.345V191.345C114.319 191.345 99.3125 176.339 99.3125 157.828V157.828Z" fill="#5AC8D8"/>
<path d="M166.344 157.828H199.24V191.345V191.345C181.072 191.345 166.344 176.617 166.344 158.449V157.828Z" fill="#91FBFF"/>
</svg>
