<svg width="256" height="257" viewBox="0 0 256 257" fill="none" xmlns="http://www.w3.org/2000/svg">
<path d="M115.2 166.9H140.8V192.5H115.2V166.9ZM115.2 64.5H140.8V141.3H115.2V64.5ZM127.872 0.5C57.216 0.5 0 57.844 0 128.5C0 199.156 57.216 256.5 127.872 256.5C198.656 256.5 256 199.156 256 128.5C256 57.844 198.656 0.5 127.872 0.5ZM128 230.9C71.424 230.9 25.6 185.076 25.6 128.5C25.6 71.924 71.424 26.1 128 26.1C184.576 26.1 230.4 71.924 230.4 128.5C230.4 185.076 184.576 230.9 128 230.9Z" fill="#7AD1DF"/>
</svg>
